<svg id="be4fba37-629e-4010-9cd7-818249624fdb" data-name="Layer 1" xmlns="http://www.w3.org/2000/svg" xmlns:xlink="http://www.w3.org/1999/xlink" viewBox="0 0 1024 1024"><defs><style>.b7a8a61a-b963-4bcd-9be6-59d61193b29c{stroke:#231f20;stroke-miterlimit:10;fill:url(#fe1a6e96-40c8-4714-9066-16b1ba48574c);}.b5f0c2cd-29aa-4561-81aa-3e312197ddf7{fill:#573e32;}.a3bd7f44-0cb9-40ba-aba6-615c45606c69,.a3cfcdb5-8b09-47c1-ab75-cd86ae18ffbd,.a99edc14-1374-43c8-bda8-ca0bcb084a0b,.ab5750fb-18b1-4042-980d-8a9375de165e,.ad283aca-4f20-42a8-a195-3b363c919320,.b5f0c2cd-29aa-4561-81aa-3e312197ddf7,.bb468970-6fc4-4db3-8372-1edaa547c0ac,.bcaa6629-8bba-4133-ab77-c02042c034f8,.bd4f298f-21e8-43c1-bdfd-f0e08606df12,.e10395ba-6706-465f-ae8f-35e5bb77e2f8,.e1c06cb7-fbd5-48ff-a15a-78b0154db579,.ef1b0909-4a13-4207-ad8a-faf4f28097bd,.f2a6f1b0-f17c-466e-99d6-e61d37f968f2,.f4f940f6-1140-4efd-9dbb-5c16b71a0159,.f7b46cf7-b078-42ef-bd5e-54d2148a136c{fill-rule:evenodd;}.a3cfcdb5-8b09-47c1-ab75-cd86ae18ffbd{fill:#343433;}.a99edc14-1374-43c8-bda8-ca0bcb084a0b{fill:#1a1a1a;}.ef1b0909-4a13-4207-ad8a-faf4f28097bd{fill:#b3b2b3;}.f2a6f1b0-f17c-466e-99d6-e61d37f968f2{fill:#989897;}.ab5750fb-18b1-4042-980d-8a9375de165e{fill:#fff;}.e10395ba-6706-465f-ae8f-35e5bb77e2f8{fill:#e5e5e5;}.a3bd7f44-0cb9-40ba-aba6-615c45606c69{fill:gray;}.bb468970-6fc4-4db3-8372-1edaa547c0ac{fill:#6e5446;}.bcaa6629-8bba-4133-ab77-c02042c034f8{fill:#422e23;}.bd4f298f-21e8-43c1-bdfd-f0e08606df12{fill:#cdcccb;}.e1c06cb7-fbd5-48ff-a15a-78b0154db579{fill:#676767;}.ad283aca-4f20-42a8-a195-3b363c919320{fill:#2f2122;}.f7b46cf7-b078-42ef-bd5e-54d2148a136c{fill:#0b0506;}.f4f940f6-1140-4efd-9dbb-5c16b71a0159{fill:#42342e;}</style><linearGradient id="fe1a6e96-40c8-4714-9066-16b1ba48574c" x1="162.3" y1="-93.7" x2="861.7" y2="1117.7" gradientUnits="userSpaceOnUse"><stop offset="0" stop-color="#f3ca40"/><stop offset="1" stop-color="#ef931a"/></linearGradient></defs><rect class="b7a8a61a-b963-4bcd-9be6-59d61193b29c" width="1024" height="1024"/><path class="b5f0c2cd-29aa-4561-81aa-3e312197ddf7" d="M328.88,433.18c0-38.42-.16-76.92-.16-115.34-11.66,4.08-20.78,21.4-22.4,41.82s6.88,47.78,22.56,73.52Z"/><path class="b5f0c2cd-29aa-4561-81aa-3e312197ddf7" d="M695.12,433.18c0-38.42.14-76.92.14-115.34,11.6,4.08,20.8,21.4,22.42,41.82s-6.88,47.78-22.56,73.52Z"/><path class="a3cfcdb5-8b09-47c1-ab75-cd86ae18ffbd" d="M512,695.12h83.72C757.34,783,881.36,755,881.36,831.26c0,32.7.3,148.82.3,192.74H142.32c0-43.92.32-160,.32-192.74,0-76.24,124-48.26,285.66-136.14Z"/><path class="a99edc14-1374-43c8-bda8-ca0bcb084a0b" d="M512,695.12h83.72C757.34,783,881.36,755,881.36,831.26c0,32.7.3,148.82.3,192.74H512V695.12Z"/><polygon class="ef1b0909-4a13-4207-ad8a-faf4f28097bd" points="457.3 1024 395.3 711.8 428.3 695.12 511.96 741.12 595.68 695.12 628.7 711.8 566.62 1024 457.3 1024"/><polygon class="f2a6f1b0-f17c-466e-99d6-e61d37f968f2" points="511.96 741.12 511.96 741.12 595.68 695.12 628.7 711.8 566.62 1024 511.96 1024 511.96 741.12"/><path class="ab5750fb-18b1-4042-980d-8a9375de165e" d="M574.42,1024H449.56l40.52-203c-11.44,0-19.26-9.5-20.8-20.8l-5.34-38.26c-1.54-11.3,9.36-20.8,20.82-20.8h54.48c11.44,0,22.34,9.5,20.72,20.8l-5.24,38.26c-1.62,11.3-9.38,20.8-20.82,20.8Z"/><path class="e10395ba-6706-465f-ae8f-35e5bb77e2f8" d="M574.42,1024H512V741.12h27.28c11.44,0,22.34,9.5,20.72,20.8l-5.24,38.26c-1.62,11.3-9.38,20.8-20.82,20.8Z"/><path class="a3bd7f44-0cb9-40ba-aba6-615c45606c69" d="M457.3,1024H367c-8.42-42.6-10.52-58.22-19.18-100.74-1-4.88,24-40.36,23.28-43.92-9.82.86-32.86-.6-33.56-4.1q-13-65.64-26-131.26h0a659.13,659.13,0,0,0,83.66-32.18h.08q30.93,156.12,62,312.2Z"/><polygon class="b5f0c2cd-29aa-4561-81aa-3e312197ddf7" points="428.3 583 595.68 583 595.68 695.12 511.96 741.12 428.3 695.12 428.3 583"/><path class="bb468970-6fc4-4db3-8372-1edaa547c0ac" d="M498.88,92.84H525.1c93.56,0,170.16,76.56,170.16,170.18V426.68c0,88.52-110.7,193.9-183.3,193.9S328.72,520.24,328.72,426.68V263c0-93.62,76.54-170.18,170.16-170.18Z"/><path class="bcaa6629-8bba-4133-ab77-c02042c034f8" d="M477.78,518.38H546.2a7.13,7.13,0,0,1,7.12,7.1h0a7.14,7.14,0,0,1-7.12,7.12H477.78a7.08,7.08,0,0,1-7.1-7.12h0a7.08,7.08,0,0,1,7.1-7.1Z"/><path class="e10395ba-6706-465f-ae8f-35e5bb77e2f8" d="M428.3,695.12q41.88,23,83.66,46c-24.28,30.38-62.62,91.08-72.82,91.08S409.9,751.92,395.3,711.8c11-5.56,21.94-11.12,33-16.68Z"/><path class="bd4f298f-21e8-43c1-bdfd-f0e08606df12" d="M595.68,695.12q-41.85,23-83.72,46c24.34,30.38,62.62,91.08,72.9,91.08s29.22-80.28,43.84-120.4c-11-5.56-22-11.12-33-16.68Z"/><path class="e1c06cb7-fbd5-48ff-a15a-78b0154db579" d="M566.62,1024h90.3c8.42-42.6,10.58-58.22,19.24-100.74.94-4.88-24-40.36-23.26-43.92,9.74.86,32.78-.6,33.48-4.1q13.11-65.64,26-131.26h-.08A662.41,662.41,0,0,1,628.7,711.8h0Q597.62,867.92,566.62,1024Z"/><path class="ad283aca-4f20-42a8-a195-3b363c919320" d="M512,45.24c133.36,0,249.48,38.72,183.3,272.6A339.84,339.84,0,0,1,638.9,184.32C605,193.52,556.48,197.6,512,197.6S419,193.52,385.08,184.32a339.26,339.26,0,0,1-56.36,133.52C262.48,84,378.66,45.24,512,45.24Z"/><path class="f7b46cf7-b078-42ef-bd5e-54d2148a136c" d="M512,45.24c133.36,0,249.48,38.72,183.3,272.6A339.84,339.84,0,0,1,638.9,184.32C605,193.52,556.48,197.6,512,197.6h0V45.24Z"/><path class="f4f940f6-1140-4efd-9dbb-5c16b71a0159" d="M396,320.52h0l-22.1,6.66c-12.06,3.7-10.28,9.14,2.16,7.26l23-3.38,59.54,8.58c5.26.76,9.58-4.26,9.58-9.52h0a9.65,9.65,0,0,0-9.58-9.6Z"/><path class="f4f940f6-1140-4efd-9dbb-5c16b71a0159" d="M628,320.52h0l22.1,6.66c12.06,3.7,10.3,9.14-2.16,7.26l-23-3.38-59.6,8.58c-5.18.76-9.5-4.26-9.5-9.52h0a9.58,9.58,0,0,1,9.5-9.6Z"/></svg>