<svg id="b21b0bcd-8106-4c96-9375-4c7c6d476b07" data-name="Layer 1" xmlns="http://www.w3.org/2000/svg" xmlns:xlink="http://www.w3.org/1999/xlink" viewBox="0 0 1024 1024"><defs><style>.a826e092-3fb5-4093-9a16-84f532dfd87b{stroke:#231f20;stroke-miterlimit:10;fill:url(#a8d44743-d06c-42d7-ac85-802a206a1722);}.adc7e05a-3c6b-45cd-9c7d-0aa439557e2c{fill:#573e32;}.a11e04bb-549a-4986-bfe9-5c7abaceb543,.a5631c02-4dec-4fed-aa0c-145aecb2c728,.a73e2fe5-9bfb-4f8e-a769-5800321ed4ed,.a7582a5c-3513-4395-8fe0-40da1e85391b,.aa61f3d3-e1c5-46a0-9611-4c92621a2a46,.abc4712f-3951-4d5a-9cb1-5e7ea2ea7b91,.abf271d1-a347-423c-a081-5b41d1482420,.adc7e05a-3c6b-45cd-9c7d-0aa439557e2c,.b27204dd-b9c2-4ed6-aefe-9460b61056a7,.b578e8b8-d1e0-4ddc-83ef-e4846a7132b3,.ba7752b6-e457-4f9d-9fb4-232072ad4ae8,.bd96a8cc-0d61-46d8-a508-a3a1691d88f5,.bf01bd55-702b-4f11-9463-aaa37fc2f047,.e0b9f19a-a126-4a1c-a362-26cc7f6bd5b1,.f04e8c2a-faee-4784-9e1d-ba2a992e7f6f,.f9feab96-9c71-4a54-9907-67dcc3aae43e{fill-rule:evenodd;}.a5631c02-4dec-4fed-aa0c-145aecb2c728{fill:#343433;}.abc4712f-3951-4d5a-9cb1-5e7ea2ea7b91{fill:#1a1a1a;}.f9feab96-9c71-4a54-9907-67dcc3aae43e{fill:#b3b2b3;}.a11e04bb-549a-4986-bfe9-5c7abaceb543{fill:#989897;}.abf271d1-a347-423c-a081-5b41d1482420{fill:#fff;}.b27204dd-b9c2-4ed6-aefe-9460b61056a7{fill:#e5e5e5;}.f04e8c2a-faee-4784-9e1d-ba2a992e7f6f{fill:gray;}.bd96a8cc-0d61-46d8-a508-a3a1691d88f5{fill:#422e23;}.bf01bd55-702b-4f11-9463-aaa37fc2f047{fill:#6e5446;}.ba7752b6-e457-4f9d-9fb4-232072ad4ae8{fill:#5d4538;}.aa61f3d3-e1c5-46a0-9611-4c92621a2a46{fill:#cdcccb;}.e0b9f19a-a126-4a1c-a362-26cc7f6bd5b1{fill:#676767;}.a73e2fe5-9bfb-4f8e-a769-5800321ed4ed{fill:#2f2122;}.a7582a5c-3513-4395-8fe0-40da1e85391b{fill:#0b0506;}.b578e8b8-d1e0-4ddc-83ef-e4846a7132b3{fill:#42342e;}</style><linearGradient id="a8d44743-d06c-42d7-ac85-802a206a1722" x1="162.3" y1="-93.7" x2="861.7" y2="1117.7" gradientUnits="userSpaceOnUse"><stop offset="0" stop-color="#f3ca40"/><stop offset="1" stop-color="#ef931a"/></linearGradient></defs><rect class="a826e092-3fb5-4093-9a16-84f532dfd87b" width="1024" height="1024"/><path class="adc7e05a-3c6b-45cd-9c7d-0aa439557e2c" d="M328.88,433.18c0-38.42-.16-76.92-.16-115.34-11.66,4.08-20.78,21.4-22.4,41.82s6.88,47.78,22.56,73.52Z"/><path class="adc7e05a-3c6b-45cd-9c7d-0aa439557e2c" d="M695.12,433.18c0-38.42.14-76.92.14-115.34,11.6,4.08,20.8,21.4,22.42,41.82s-6.88,47.78-22.56,73.52Z"/><path class="a5631c02-4dec-4fed-aa0c-145aecb2c728" d="M512,695.12h83.72C757.34,783,881.36,755,881.36,831.26c0,32.7.3,148.82.3,192.74H142.32c0-43.92.32-160,.32-192.74,0-76.24,124-48.26,285.66-136.14Z"/><path class="abc4712f-3951-4d5a-9cb1-5e7ea2ea7b91" d="M512,695.12h83.72C757.34,783,881.36,755,881.36,831.26c0,32.7.3,148.82.3,192.74H512V695.12Z"/><polygon class="f9feab96-9c71-4a54-9907-67dcc3aae43e" points="457.3 1024 395.3 711.8 428.3 695.12 511.96 741.12 595.68 695.12 628.7 711.8 566.62 1024 457.3 1024"/><polygon class="a11e04bb-549a-4986-bfe9-5c7abaceb543" points="511.96 741.12 511.96 741.12 595.68 695.12 628.7 711.8 566.62 1024 511.96 1024 511.96 741.12"/><path class="abf271d1-a347-423c-a081-5b41d1482420" d="M574.42,1024H449.56l40.52-203c-11.44,0-19.26-9.5-20.8-20.8l-5.34-38.26c-1.54-11.3,9.36-20.8,20.82-20.8h54.48c11.44,0,22.34,9.5,20.72,20.8l-5.24,38.26c-1.62,11.3-9.38,20.8-20.82,20.8Z"/><path class="b27204dd-b9c2-4ed6-aefe-9460b61056a7" d="M574.42,1024H512V741.12h27.28c11.44,0,22.34,9.5,20.72,20.8l-5.24,38.26c-1.62,11.3-9.38,20.8-20.82,20.8Z"/><path class="f04e8c2a-faee-4784-9e1d-ba2a992e7f6f" d="M457.3,1024H367c-8.42-42.6-10.52-58.22-19.18-100.74-1-4.88,24-40.36,23.28-43.92-9.82.86-32.86-.6-33.56-4.1q-13-65.64-26-131.26h0a659.13,659.13,0,0,0,83.66-32.18h.08q30.93,156.12,62,312.2Z"/><polygon class="adc7e05a-3c6b-45cd-9c7d-0aa439557e2c" points="428.3 583 595.68 583 595.68 695.12 511.96 741.12 428.3 695.12 428.3 583"/><polygon class="bd96a8cc-0d61-46d8-a508-a3a1691d88f5" points="511.96 583 595.68 583 595.68 695.12 511.96 741.12 511.96 741.12 511.96 583"/><path class="bf01bd55-702b-4f11-9463-aaa37fc2f047" d="M498.88,92.84H525.1c93.56,0,170.16,76.56,170.16,170.18V426.68c0,88.52-110.7,193.9-183.3,193.9S328.72,520.24,328.72,426.68V263c0-93.62,76.54-170.18,170.16-170.18Z"/><path class="ba7752b6-e457-4f9d-9fb4-232072ad4ae8" d="M512,92.84H525.1c93.56,0,170.16,76.56,170.16,170.18V426.68c0,88.52-110.7,193.9-183.3,193.9h0Z"/><path class="bd96a8cc-0d61-46d8-a508-a3a1691d88f5" d="M477.78,518.38H546.2a7.13,7.13,0,0,1,7.12,7.1h0a7.14,7.14,0,0,1-7.12,7.12H477.78a7.08,7.08,0,0,1-7.1-7.12h0a7.08,7.08,0,0,1,7.1-7.1Z"/><path class="b27204dd-b9c2-4ed6-aefe-9460b61056a7" d="M428.3,695.12q41.88,23,83.66,46c-24.28,30.38-62.62,91.08-72.82,91.08S409.9,751.92,395.3,711.8c11-5.56,21.94-11.12,33-16.68Z"/><path class="aa61f3d3-e1c5-46a0-9611-4c92621a2a46" d="M595.68,695.12q-41.85,23-83.72,46c24.34,30.38,62.62,91.08,72.9,91.08s29.22-80.28,43.84-120.4c-11-5.56-22-11.12-33-16.68Z"/><path class="e0b9f19a-a126-4a1c-a362-26cc7f6bd5b1" d="M566.62,1024h90.3c8.42-42.6,10.58-58.22,19.24-100.74.94-4.88-24-40.36-23.26-43.92,9.74.86,32.78-.6,33.48-4.1q13.11-65.64,26-131.26h-.08A662.41,662.41,0,0,1,628.7,711.8h0Q597.62,867.92,566.62,1024Z"/><path class="a73e2fe5-9bfb-4f8e-a769-5800321ed4ed" d="M512,45.24c133.36,0,249.48,38.72,183.3,272.6A339.84,339.84,0,0,1,638.9,184.32C605,193.52,556.48,197.6,512,197.6S419,193.52,385.08,184.32a339.26,339.26,0,0,1-56.36,133.52C262.48,84,378.66,45.24,512,45.24Z"/><path class="a7582a5c-3513-4395-8fe0-40da1e85391b" d="M512,45.24c133.36,0,249.48,38.72,183.3,272.6A339.84,339.84,0,0,1,638.9,184.32C605,193.52,556.48,197.6,512,197.6h0V45.24Z"/><path class="b578e8b8-d1e0-4ddc-83ef-e4846a7132b3" d="M396,320.52h0l-22.1,6.66c-12.06,3.7-10.28,9.14,2.16,7.26l23-3.38,59.54,8.58c5.26.76,9.58-4.26,9.58-9.52h0a9.65,9.65,0,0,0-9.58-9.6Z"/><path class="b578e8b8-d1e0-4ddc-83ef-e4846a7132b3" d="M628,320.52h0l22.1,6.66c12.06,3.7,10.3,9.14-2.16,7.26l-23-3.38-59.6,8.58c-5.18.76-9.5-4.26-9.5-9.52h0a9.58,9.58,0,0,1,9.5-9.6Z"/></svg>